<svg aria-hidden="true" style="position: absolute; width: 0; height: 0; overflow: hidden;" version="1.1" xmlns="http://www.w3.org/2000/svg" xmlns:xlink="http://www.w3.org/1999/xlink">
<defs>
<symbol id="icon-ic_baseline-error-outline" viewBox="0 0 32 32">
<title>ic_baseline-error-outline</title>
<path fill="#e74a3b" style="fill: var(--color1, #e74a3b)" d="M14.667 20h2.667v2.667h-2.667v-2.667zM14.667 9.333h2.667v8h-2.667v-8zM15.987 2.667c-7.36 0-13.32 5.973-13.32 13.333s5.96 13.333 13.32 13.333c7.373 0 13.347-5.973 13.347-13.333s-5.973-13.333-13.347-13.333zM16 26.667c-5.893 0-10.667-4.773-10.667-10.667s4.773-10.667 10.667-10.667c5.893 0 10.667 4.773 10.667 10.667s-4.773 10.667-10.667 10.667z"></path>
</symbol>
<symbol id="icon-menu" viewBox="0 0 32 32">
<title>align-justify</title>
<path  stroke-linejoin="round" stroke-linecap="round" stroke-miterlimit="4" stroke-width="2.4" d="M28 13.333h-24"></path>
<path  stroke-linejoin="round" stroke-linecap="round" stroke-miterlimit="4" stroke-width="2.4" d="M28 18.667h-24"></path>
</symbol>
<symbol id="icon-ph_youtube-logo" viewBox="0 0 32 32">
<title>ph_youtube-logo</title>
<path  d="M20.55 15.162l-6-4c-0.152-0.096-0.326-0.152-0.506-0.161s-0.359 0.029-0.519 0.111c-0.16 0.086-0.293 0.215-0.386 0.371s-0.141 0.335-0.139 0.517v8c-0.001 0.182 0.047 0.36 0.139 0.517s0.226 0.285 0.386 0.371c0.148 0.074 0.31 0.112 0.475 0.112 0.195-0.002 0.385-0.058 0.55-0.162l6-4c0.139-0.091 0.254-0.215 0.333-0.361s0.121-0.31 0.121-0.476c0-0.166-0.042-0.33-0.121-0.476s-0.194-0.27-0.333-0.361zM15 18.138v-4.275l3.2 2.138-3.2 2.138zM29.288 8.725c-0.115-0.461-0.34-0.887-0.656-1.242s-0.713-0.628-1.157-0.796c-4.275-1.65-11.1-1.638-11.475-1.638s-7.2-0.013-11.475 1.638c-0.444 0.168-0.841 0.441-1.157 0.796s-0.541 0.781-0.655 1.242c-0.325 1.237-0.712 3.512-0.712 7.275s0.388 6.038 0.712 7.275c0.115 0.461 0.34 0.887 0.655 1.242s0.713 0.628 1.157 0.796c4.1 1.588 10.525 1.638 11.387 1.638h0.175c0.862 0 7.288-0.050 11.388-1.638 0.444-0.168 0.841-0.441 1.157-0.796s0.541-0.781 0.656-1.242c0.325-1.238 0.712-3.513 0.712-7.275s-0.388-6.038-0.712-7.275zM27.35 22.775c-0.037 0.151-0.11 0.291-0.212 0.409s-0.231 0.209-0.376 0.266c-3.962 1.525-10.687 1.5-10.762 1.5h-0.012c-0.063 0-6.788 0.025-10.75-1.5-0.145-0.057-0.274-0.149-0.376-0.266s-0.175-0.258-0.212-0.409c-0.3-1.138-0.65-3.225-0.65-6.775s0.35-5.638 0.65-6.775c0.037-0.151 0.11-0.292 0.212-0.409s0.231-0.209 0.376-0.266c3.813-1.463 10.213-1.5 10.738-1.5h0.025c0.075 0 6.8-0.025 10.762 1.5 0.145 0.057 0.274 0.149 0.376 0.266s0.175 0.258 0.212 0.409c0.3 1.137 0.65 3.225 0.65 6.775s-0.35 5.638-0.65 6.775z"></path>
</symbol>
<symbol id="icon-Property-1check" viewBox="0 0 32 32">
<title>Property-1check</title>
<path  stroke-linejoin="round" stroke-linecap="round" stroke-miterlimit="4" stroke-width="3.6923" d="M26.667 8l-14.667 14.667-6.667-6.667"></path>
</symbol>
<symbol id="icon-logo" viewBox="0 0 241 32">
<title>LOGO</title>
<path  d="M0 31.965v-31.965h5.991l14.798 10.372h0.224l14.798-10.372h5.99v31.965h-7.153v-23.024l-10.148 6.795v16.228h-7.153v-16.228l-10.193-6.795v23.024h-7.153z"></path>
<path  d="M48.515 31.965v-31.965h7.153v31.965h-7.153z"></path>
<path  d="M62.365 31.965v-31.965h7.242l22.621 22.979v-22.979h7.153v31.965h-7.242l-22.621-23.024v23.024h-7.153z"></path>
<path d="M106.077 31.965v-31.965h7.153v31.965h-7.153z"></path>
<path d="M119.927 31.965v-31.965h5.991l14.798 10.372h0.223l14.798-10.372h5.991v31.965h-7.153v-23.024l-10.148 6.795v16.228h-7.153v-16.228l-10.193-6.795v23.024h-7.153z"></path>
<path  d="M165.759 31.965l14.395-31.965h11.042l14.396 31.965h-7.78l-3.040-6.751h-18.195l-3.040 6.751h-7.779zM179.171 19.402h13.010l-6.214-13.814h-0.581l-6.214 13.814z"></path>
<path  d="M209.623 31.965v-31.965h7.153v26.153h23.381v5.812h-30.534z"></path>
</symbol>
<symbol id="icon-ph_facebook-logo" viewBox="0 0 32 32">
<title>ph_facebook-logo</title>
<path  d="M29 16c0-2.571-0.762-5.085-2.191-7.222s-3.459-3.804-5.834-4.788c-2.375-0.984-4.989-1.241-7.511-0.74s-4.838 1.74-6.656 3.558c-1.818 1.818-3.056 4.134-3.558 6.656s-0.244 5.136 0.74 7.511c0.984 2.375 2.65 4.406 4.788 5.834s4.651 2.191 7.222 2.191c3.447-0.003 6.752-1.374 9.189-3.811s3.808-5.742 3.811-9.189zM17 26.95v-7.95h3c0.265 0 0.52-0.105 0.707-0.293s0.293-0.442 0.293-0.707c0-0.265-0.105-0.52-0.293-0.707s-0.442-0.293-0.707-0.293h-3v-3c0-0.53 0.211-1.039 0.586-1.414s0.884-0.586 1.414-0.586h2c0.265 0 0.52-0.105 0.707-0.293s0.293-0.442 0.293-0.707c0-0.265-0.105-0.52-0.293-0.707s-0.442-0.293-0.707-0.293h-2c-1.060 0.003-2.075 0.426-2.825 1.175s-1.172 1.765-1.175 2.825v3h-3c-0.265 0-0.52 0.105-0.707 0.293s-0.293 0.442-0.293 0.707c0 0.265 0.105 0.52 0.293 0.707s0.442 0.293 0.707 0.293h3v7.95c-2.819-0.257-5.43-1.592-7.291-3.725s-2.827-4.902-2.698-7.73c0.129-2.828 1.343-5.497 3.389-7.453s4.768-3.047 7.599-3.047 5.552 1.091 7.599 3.047c2.047 1.956 3.261 4.625 3.389 7.453s-0.838 5.596-2.698 7.73-4.472 3.468-7.291 3.725z"></path>
</symbol>
<symbol id="icon-ph_instagram-logo" viewBox="0 0 32 32">
<title>ph_instagram-logo</title>
<path  d="M16 10c-1.187 0-2.347 0.352-3.333 1.011s-1.756 1.596-2.21 2.693c-0.454 1.096-0.573 2.303-0.341 3.467s0.803 2.233 1.642 3.072 1.908 1.411 3.072 1.642c1.164 0.232 2.37 0.113 3.467-0.341s2.033-1.223 2.693-2.21c0.659-0.987 1.011-2.147 1.011-3.333 0-1.591-0.632-3.117-1.757-4.243s-2.651-1.757-4.243-1.757zM16 20c-0.791 0-1.564-0.235-2.222-0.674s-1.17-1.064-1.473-1.795-0.382-1.535-0.228-2.311c0.154-0.776 0.535-1.489 1.095-2.048s1.272-0.94 2.048-1.095c0.776-0.154 1.58-0.075 2.311 0.228s1.356 0.815 1.795 1.473c0.44 0.658 0.674 1.431 0.674 2.222-0.003 1.060-0.426 2.075-1.175 2.825s-1.765 1.172-2.825 1.175zM21.5 3.5h-11c-1.856 0-3.637 0.737-4.95 2.050s-2.050 3.093-2.050 4.95v11c0 1.856 0.737 3.637 2.050 4.95s3.093 2.050 4.95 2.050h11c1.856 0 3.637-0.738 4.95-2.050s2.050-3.093 2.050-4.95v-11c0-1.856-0.738-3.637-2.050-4.95s-3.093-2.050-4.95-2.050zM26.5 21.5c0 0.657-0.129 1.307-0.381 1.913s-0.62 1.158-1.084 1.622c-0.464 0.464-1.015 0.833-1.622 1.084s-1.257 0.381-1.913 0.381h-11c-0.657 0-1.307-0.129-1.913-0.381s-1.158-0.62-1.622-1.084c-0.464-0.464-0.833-1.015-1.084-1.622s-0.381-1.257-0.381-1.913v-11c0-1.326 0.527-2.598 1.464-3.536s2.209-1.464 3.536-1.464h11c0.657 0 1.307 0.129 1.913 0.381s1.158 0.62 1.622 1.084c0.464 0.464 0.833 1.016 1.084 1.622s0.381 1.257 0.381 1.913v11zM24 9.5c0 0.297-0.088 0.587-0.253 0.833s-0.399 0.439-0.673 0.552c-0.274 0.114-0.576 0.143-0.867 0.085s-0.558-0.201-0.768-0.411-0.353-0.477-0.411-0.768c-0.058-0.291-0.028-0.593 0.085-0.867s0.306-0.508 0.552-0.673c0.247-0.165 0.537-0.253 0.833-0.253 0.398 0 0.779 0.158 1.061 0.439s0.439 0.663 0.439 1.061z"></path>
</symbol>
<symbol id="icon-Property-1check1" viewBox="0 0 32 32">
<title>Property-1check1</title>
<path  stroke-linejoin="round" stroke-linecap="round" stroke-miterlimit="4" stroke-width="3.6923" d="M26.667 8l-14.667 14.667-6.667-6.667"></path>
</symbol>
<symbol id="icon-close" viewBox="0 0 32 32">
<title>x</title>
<path  stroke-linejoin="round" stroke-linecap="round" stroke-miterlimit="4" stroke-width="3" d="M24 8l-16 16"></path>
<path  stroke-linejoin="round" stroke-linecap="round" stroke-miterlimit="4" stroke-width="3" d="M8 8l16 16"></path>
</symbol>
</defs>
</svg>